<svg width="124" height="19" viewBox="0 0 124 19" fill="none" xmlns="http://www.w3.org/2000/svg">
<path d="M8.33851 19.001L11.3636 0.562366H14.9649L11.9398 19.001H8.33851ZM0.163583 14.7875L0.775802 11.1862H15.6131L15.0009 14.7875H0.163583ZM1.85619 19.001L4.88127 0.562366H8.48257L5.45748 19.001H1.85619ZM1.20796 8.37717L1.82018 4.77588H16.6575L16.0453 8.37717H1.20796ZM23.0363 0.562366L26.8176 13.563H26.9617L30.743 0.562366H36.3971L30.3109 19.001H23.4684L17.3823 0.562366H23.0363ZM39.9421 19.001H34.5402L40.6263 0.562366H47.4688L53.555 19.001H48.153L44.1196 5.64019H43.9755L39.9421 19.001ZM38.9337 11.7264H49.0894V15.4717H38.9337V11.7264ZM71.2846 0.562366V19.001H67.1071L60.4447 9.3135H60.3367V19.001H55.3309V0.562366H59.5804L66.1347 10.2138H66.2788V0.562366H71.2846ZM73.6524 19.001V0.562366H78.6582V14.9675H86.1129V19.001H73.6524ZM93.1422 0.562366V19.001H88.1364V0.562366H93.1422ZM95.5145 19.001V0.562366H108.479V4.59581H100.52V7.76495H107.687V11.7984H100.52V19.001H95.5145ZM110.32 19.001V0.562366H123.609V4.59581H115.326V7.76495H122.925V11.7984H115.326V14.9675H123.573V19.001H110.32Z" fill="black"/>
</svg>
